<svg width="17" height="17" viewBox="0 0 17 17" fill="none" xmlns="http://www.w3.org/2000/svg">
<path d="M9.14176 7.64118V7.66762H9.12461C9.13025 7.65887 9.13597 7.65006 9.14176 7.64118Z" />
<path fill-rule="evenodd" clip-rule="evenodd" d="M0 1.21777C0 0.545398 0.562434 0 1.25627 0H15.7437C16.4375 0 17 0.545398 17 1.21777V15.7822C17 16.4548 16.4375 17 15.7437 17H1.25627C0.562434 17 0 16.4548 0 15.7822V1.21777ZM5.15322 14.2308V6.55434H2.58553V14.2308H5.15322ZM3.86936 5.50625C4.76477 5.50625 5.32209 4.91678 5.32209 4.18012C5.3054 3.42687 4.76477 2.85377 3.88635 2.85377C3.00802 2.85377 2.43374 3.42687 2.43374 4.18012C2.43374 4.91678 2.99094 5.50625 3.85263 5.50625H3.86936ZM9.14169 14.2308H6.57409C6.57409 14.2308 6.60778 7.27464 6.57409 6.55434H9.14176V7.64118C9.483 7.1181 10.0937 6.3742 11.4558 6.3742C13.1451 6.3742 14.4119 7.47136 14.4119 9.82922V14.2308H11.8444V10.1241C11.8444 9.0921 11.4728 8.38815 10.5436 8.38815C9.83429 8.38815 9.4118 8.8629 9.22618 9.3213C9.15838 9.48531 9.14169 9.71451 9.14169 9.94393V14.2308Z" fill="#ffffff" />
</svg>