<svg width="21" height="17" viewBox="0 0 21 17" fill="none" xmlns="http://www.w3.org/2000/svg">
<path d="M6.60408 17C14.5286 17 18.863 10.459 18.863 4.78673C18.863 4.60094 18.863 4.41599 18.8504 4.23188C19.6937 3.62424 20.4215 2.87187 21 2.00999C20.2137 2.35713 19.3795 2.58478 18.5254 2.68535C19.4248 2.1489 20.0979 1.30516 20.4196 0.311148C19.5738 0.81114 18.6485 1.16351 17.6837 1.35305C17.0341 0.66488 16.1749 0.209191 15.2392 0.0564998C14.3034 -0.0961913 13.3432 0.0626283 12.5072 0.508382C11.6712 0.954136 11.0059 1.66197 10.6144 2.52236C10.2229 3.38274 10.1268 4.3477 10.3412 5.26793C8.62827 5.18237 6.95251 4.73888 5.42274 3.96625C3.89297 3.19362 2.54338 2.10912 1.4616 0.783143C0.910637 1.7281 0.741888 2.84675 0.989712 3.91131C1.23754 4.97587 1.8833 5.90631 2.79552 6.51319C2.10986 6.49294 1.43915 6.30867 0.84 5.97592C0.84 5.99349 0.84 6.0119 0.84 6.03031C0.840272 7.02135 1.18462 7.98178 1.81464 8.74872C2.44465 9.51565 3.32155 10.0419 4.2966 10.2381C3.66229 10.4104 2.99677 10.4356 2.35116 10.3117C2.62648 11.1646 3.16249 11.9105 3.88422 12.445C4.60595 12.9795 5.47732 13.2758 6.37644 13.2927C4.85078 14.4872 2.96609 15.1357 1.02564 15.1338C0.682839 15.1331 0.340371 15.1124 0 15.0719C1.97033 16.3316 4.26293 16.9998 6.60408 16.9967" fill="#ffffff" />
</svg>
